<?xml version="1.0" encoding="UTF-8"?>

<svg version="1.0" xmlns="http://www.w3.org/2000/svg"
 width="24" height="24" viewBox="0 0 740.000000 740.000000"
 preserveAspectRatio="xMidYMid meet">

<g transform="translate(0.000000,740.000000) scale(0.100000,-0.100000)"
fill="currentColor" stroke="none">
<path d="M3490 5400 c-750 -105 -1323 -642 -1472 -1382 -33 -163 -33 -472 0
-634 197 -978 1142 -1578 2107 -1337 936 233 1490 1220 1208 2153 -181 600
-684 1053 -1313 1181 -109 23 -423 34 -530 19z m335 -210 c655 -63 1182 -522
1331 -1157 31 -133 43 -388 25 -526 -84 -630 -556 -1134 -1191 -1273 -134 -30
-459 -27 -599 4 -962 216 -1465 1255 -1029 2127 234 467 689 779 1205 824 126
12 146 12 258 1z"/>
<path d="M3009 4637 c-125 -66 -128 -250 -5 -322 182 -107 372 123 233 282
-59 67 -147 82 -228 40z"/>
<path d="M3970 4144 c-59 -22 -120 -64 -158 -111 l-31 -38 -1 73 0 72 -155 0
-155 0 0 -525 0 -525 159 0 159 0 4 318 c4 353 8 373 74 431 54 48 167 54 224
13 62 -45 65 -65 68 -430 l3 -332 162 2 162 3 -1 360 c0 302 -3 371 -17 428
-33 132 -88 206 -186 249 -64 29 -246 35 -311 12z"/>
<path d="M2940 3615 l0 -525 160 0 160 0 0 525 0 525 -160 0 -160 0 0 -525z"/>
</g>
</svg>
